<svg xmlns="http://www.w3.org/2000/svg" viewBox="0 0 32 32">
  <path fill="none" stroke="#4a7fc7" stroke-width="1.3" stroke-linecap="round" d="M7.6 20.4C5.7 18.9 4.5 16.6 4.5 14c0-5.1 5.4-8.9 11.5-8.9S27.5 8.9 27.5 14c0 2.6-1.2 4.9-3.1 6.4"/>
  <path fill="none" stroke="#6a7f9b" stroke-width="0.9" stroke-linecap="round" d="M10.1 18.5C9 17.4 8.4 15.9 8.4 14.2c0-3.5 3.4-6.1 7.6-6.1s7.6 2.6 7.6 6.1c0 1.7-.6 3.2-1.7 4.3"/>
  <path fill="none" stroke="#222" stroke-width="1.5" stroke-linecap="round" d="M16 3.6v21.8M12.3 10.6 16 3.6l3.7 7M11.1 22.3 16 25.4l4.9-3.1"/>
  <path fill="none" stroke="#4a7fc7" stroke-width="0.6" stroke-linecap="round" d="M16 7.5 9.2 20.5M16 7.5l6.8 13M6.1 25.9c2.2-1 4.4-1 6.6 0s4.4 1 6.6 0 4.4-1 6.6 0"/>
  <circle fill="#1a1a2e" stroke="#222" stroke-width="1" cx="16" cy="14.2" r="2.4"/>
  <circle fill="#4a7fc7" cx="16" cy="14.2" r="0.82"/>
</svg>
