<svg xmlns="http://www.w3.org/2000/svg" viewBox="0 0 32 32">
  <rect width="32" height="32" rx="7" fill="#0f0f17"/>
  <!-- outer signal arc (thick) -->
  <path fill="none" stroke="#4a7fc7" stroke-width="3.5" stroke-linecap="round" d="M6 20C4 18 3 16 3 14c0-5.5 5.8-9.5 13-9.5S29 8.5 29 14c0 2-1 4-3 6"/>
  <!-- inner signal arc -->
  <path fill="none" stroke="#4a7fc7" stroke-width="2.8" stroke-linecap="round" d="M10 18C9 17 8 15.5 8 14c0-3.5 3.6-6 8-6s8 2.5 8 6c0 1.5-1 3-2 4"/>
  <!-- mast (thick vertical) -->
  <rect x="14.5" y="3" width="3" height="26" rx="1.5" fill="#e8e8e8"/>
  <!-- mast cross arms -->
  <path fill="none" stroke="#e8e8e8" stroke-width="2.8" stroke-linecap="round" d="M16 7l-5 7M16 7l5 7"/>
  <!-- base -->
  <path fill="none" stroke="#e8e8e8" stroke-width="2.8" stroke-linecap="round" d="M10 24l6 4 6-4"/>
  <!-- core dot -->
  <circle fill="#4a7fc7" cx="16" cy="14" r="4"/>
  <circle fill="#e8e8e8" cx="16" cy="14" r="1.8"/>
</svg>
