<svg xmlns="http://www.w3.org/2000/svg" viewBox="0 0 32 32" width="256" height="256">
  <rect width="32" height="32" fill="#ffffff"/><!-- True-vector remake of avatar.png: same geometry as the dashboard's
       inline brand icon, weighted and colored to match the raster avatar. -->
  <g fill="none" stroke-linecap="round">
    <path d="M7.6 20.4C5.7 18.9 4.5 16.6 4.5 14c0-5.1 5.4-8.9 11.5-8.9S27.5 8.9 27.5 14c0 2.6-1.2 4.9-3.1 6.4" stroke="#4A7FC7" stroke-width="1.6"/>
    <path d="M10.1 18.5C9 17.4 8.4 15.9 8.4 14.2c0-3.5 3.4-6.1 7.6-6.1s7.6 2.6 7.6 6.1c0 1.7-.6 3.2-1.7 4.3" stroke="#687E9B" stroke-width="1.1"/>
    <path d="M16 7.5 9.2 20.5M16 7.5l6.8 13" stroke="#4A7FC7" stroke-width="0.55"/>
    <path d="M6.1 25.9c2.2-1 4.4-1 6.6 0s4.4 1 6.6 0 4.4-1 6.6 0" stroke="#4A7FC7" stroke-width="0.75"/>
    <path d="M16 4v21.6" stroke="#212124" stroke-width="1.3"/>
    <path d="M12.3 10.6 16 3.6l3.7 7" stroke="#212124" stroke-width="1.75"/>
    <path d="M11.1 22.3 16 25.4l4.9-3.1" stroke="#212124" stroke-width="1.55"/>
  </g>
  <path d="M16 3.1 14.6 5.9 H17.4 Z" fill="#212124"/>
  <circle cx="16" cy="14.2" r="2.2" fill="#212124"/>
  <circle cx="16" cy="14.2" r="1.45" fill="#1A1A2E"/>
  <circle cx="16" cy="14.2" r="0.8" fill="#4A7FC7"/>
</svg>
